#!OML:ASF F:\VICON\USERDATA\INSTALL\rory3\rory3.ASF
:FULLY-SPECIFIED
:DEGREES
1027
root -4.87932 17.228 1.66669 -501.436 -16.3208 -543.851
lowerback -15.7313 1.57279 0.0408206
upperback -17.7124 -1.99575 -3.04566
thorax -10.8034 -2.97367 -3.1566
lowerneck -0.331357 17.4369 8.72787
upperneck 8.46887 23.4823 -5.9913
head 4.32048 11.6058 -1.87063
rclavicle -6.41081e-014 -4.77083e-015
rhumerus 326.608 -29.8395 -355.823
rradius 20.8239
rwrist 2.07256
rhand -24.6519 24.1385
rfingers 7.12502
rthumb 1.84778 -5.83322
lclavicle -6.41081e-014 -4.77083e-015
lhumerus 53.7608 -14.9781 31.0327
lradius 30.6596
lwrist -16.3198
lhand -26.8532 17.769
lfingers 7.12502
lthumb -0.278324 47.7485
rfemur -55.5413 22.7247 6.74205
rtibia 21.5855
rfoot -71.8817 -36.199
rtoes 55.6515
lfemur -6.17151 17.8376 -19.7467
ltibia 5.46719
lfoot -30.5592 46.4491
ltoes 49.6414
1028
root -4.87858 17.233 1.66176 -501.271 -16.6035 -544.057
lowerback -16.0598 1.6256 -0.0962886
upperback -17.6158 -1.88191 -3.1288
thorax -10.4974 -2.89327 -3.18189
lowerneck -0.012599 17.7333 8.56887
upperneck 8.23845 23.9133 -6.21894
head 4.23989 11.8134 -1.91704
rclavicle 1.27222e-014 4.25399e-014
rhumerus 325.646 -29.6057 -356.24
rradius 20.603
rwrist 2.82861
rhand -25.3797 24.4197
rfingers 7.12502
rthumb 1.1448 -5.55702
lclavicle 1.27222e-014 4.25399e-014
lhumerus 52.5318 -15.8428 32.3521
lradius 30.8949
lwrist -16.2798
lhand -26.2941 19.1085
lfingers 7.12502
lthumb 0.261658 49.0881
rfemur -55.5032 22.4204 6.72582
rtibia 21.5693
rfoot -71.8951 -36.1795
rtoes 55.7194
lfemur -6.52959 17.5264 -19.843
ltibia 5.77432
lfoot -30.7649 45.8337
ltoes 49.9142
1029
root -4.87815 17.2395 1.66335 -501.471 -17.1103 -543.861
lowerback -16.09 1.78338 0.345531
upperback -17.4518 -1.62418 -3.23348
thorax -10.2683 -2.78292 -3.53995
lowerneck 0.332415 17.9377 8.69742
upperneck 8.11831 24.2233 -6.51858
head 4.22375 11.966 -2.0193
rclavicle -6.70898e-015 -3.02153e-014
rhumerus 324.549 -28.2128 -357.262
rradius 20.7535
rwrist 2.06682
rhand -26.0362 23.7164
rfingers 7.12502
rthumb 0.510774 -6.26271
lclavicle -6.70898e-015 -3.02153e-014
lhumerus 51.4081 -16.3764 34.528
lradius 30.7553
lwrist -17.1809
lhand -25.4921 19.6788
lfingers 7.12502
lthumb 1.03626 49.656
rfemur -55.2224 22.2685 7.27394
rtibia 21.5918
rfoot -71.9639 -36.0481
rtoes 55.8692
lfemur -6.4592 17.2815 -19.3113
ltibia 5.82337
lfoot -31.1264 45.2645
ltoes 50.3001
1030
root -4.871 17.2464 1.66809 -501.547 -17.4223 -543.753
lowerback -16.1109 1.88699 0.540208
upperback -17.3467 -1.45019 -3.32023
thorax -10.1187 -2.69871 -3.74023
lowerneck 0.598485 18.0576 9.08543
upperneck 8.24008 24.4365 -7.02142
head 4.34506 12.0617 -2.18847
rclavicle -1.35671e-014 2.50469e-014
rhumerus 323.48 -27.7974 -358.033
rradius 20.6108
rwrist 2.3061
rhand -26.1764 23.2189
rfingers 7.12502
rthumb 0.375345 -6.76056
lclavicle -1.35671e-014 2.50469e-014
lhumerus 50.0659 -16.7336 36.708
lradius 30.5573
lwrist -18.0949
lhand -24.0653 19.3918
lfingers 7.12502
lthumb 2.41427 49.3579
rfemur -55.0988 22.1993 7.56421
rtibia 21.5484
rfoot -72.0742 -36.0423
rtoes 55.885
lfemur -6.57513 17.1404 -19.016
ltibia 5.96307
lfoot -31.319 45.1174
ltoes 50.412
1031
root -4.85973 17.25 1.66858 -501.53 -17.3691 -544.049
lowerback -16.2592 1.85764 0.0543322
upperback -17.1566 -1.38241 -3.39959
thorax -9.79715 -2.58348 -3.56252
lowerneck 0.255404 18.1129 9.27592
upperneck 8.80334 24.5413 -7.37792
head 4.64973 12.0772 -2.22786
rclavicle 1.36664e-014 -4.77083e-015
rhumerus 322.393 -28.8097 -358.071
rradius 20.047
rwrist 4.09168
rhand -25.6043 23.8613
rfingers 7.12502
rthumb 0.927918 -6.11646
lclavicle 1.36664e-014 -4.77083e-015
lhumerus 48.5485 -16.8739 39.11
lradius 30.2401
lwrist -18.4918
lhand -21.9245 18.7847
lfingers 7.12502
lthumb 4.48172 48.7173
rfemur -54.9958 22.1677 7.27123
rtibia 21.488
rfoot -72.1512 -36.0566
rtoes 55.9081
lfemur -6.64728 17.0394 -19.2674
ltibia 6.11811
lfoot -30.9373 45.7226
ltoes 49.8916
1032
root -4.85079 17.2508 1.6708 -501.712 -17.5201 -544.067
lowerback -16.1831 1.90239 -0.043821
upperback -17.0116 -1.23642 -3.3974
thorax -9.64712 -2.46278 -3.50001
lowerneck 0.168581 18.3966 8.59998
upperneck 8.65942 24.8884 -6.95628
head 4.51115 12.2483 -2.01594
rclavicle -8.64713e-015 -2.54444e-014
rhumerus 321.301 -29.4382 -358.194
rradius 19.6839
rwrist 5.46825
rhand -25.2245 24.1557
rfingers 7.12502
rthumb 1.29473 -5.82007
lclavicle -8.64713e-015 -2.54444e-014
lhumerus 47.097 -18.3255 39.9255
lradius 30.4587
lwrist -16.094
lhand -20.4506 20.0655
lfingers 7.12502
lthumb 5.90483 49.9632
rfemur -54.7772 22.1925 7.38277
rtibia 21.4755
rfoot -72.2305 -36.1217
rtoes 55.9771
lfemur -6.41272 16.9398 -19.0536
ltibia 6.00543
lfoot -30.2566 45.9444
ltoes 49.8539
1033
root -4.84778 17.2539 1.67341 -501.937 -17.8317 -544.106
lowerback -16.015 1.95232 0.0926651
upperback -16.877 -1.10984 -3.47145
thorax -9.5667 -2.38405 -3.65176
lowerneck 0.836 18.4821 8.74662
upperneck 8.07593 25.0622 -7.60468
head 4.34131 12.341 -2.27863
rclavicle 5.01931e-015 -2.46493e-014
rhumerus 320.18 -30.0537 -358.47
rradius 19.3829
rwrist 6.33001
rhand -25.089 23.7249
rfingers 7.12502
rthumb 1.42565 -6.25006
lclavicle 5.01931e-015 -2.46493e-014
lhumerus 45.1128 -17.8711 42.6453
lradius 29.9959
lwrist -18.8336
lhand -15.627 16.5853
lfingers 7.12502
lthumb 10.56 46.3
rfemur -54.511 22.0752 7.6278
rtibia 21.6195
rfoot -72.3794 -36.1286
rtoes 55.9717
lfemur -5.77603 16.6832 -18.6309
ltibia 5.40248
lfoot -30.5738 45.3585
ltoes 50.3415
